<svg width="39" height="39" viewBox="0 0 39 39" fill="none" xmlns="http://www.w3.org/2000/svg">
<path fill-rule="evenodd" clip-rule="evenodd" d="M3.25 9.75C3.25 8.02609 3.93482 6.37279 5.15381 5.15381C6.37279 3.93482 8.02609 3.25 9.75 3.25H29.25C30.9739 3.25 32.6272 3.93482 33.8462 5.15381C35.0652 6.37279 35.75 8.02609 35.75 9.75V29.25C35.75 30.9739 35.0652 32.6272 33.8462 33.8462C32.6272 35.0652 30.9739 35.75 29.25 35.75H9.75C8.02609 35.75 6.37279 35.0652 5.15381 33.8462C3.93482 32.6272 3.25 30.9739 3.25 29.25V9.75ZM9.75 6.5C8.88805 6.5 8.0614 6.84241 7.4519 7.4519C6.84241 8.0614 6.5 8.88805 6.5 9.75V29.25C6.5 30.112 6.84241 30.9386 7.4519 31.5481C8.0614 32.1576 8.88805 32.5 9.75 32.5H19.5V21.125H17.875C17.444 21.125 17.0307 20.9538 16.726 20.649C16.4212 20.3443 16.25 19.931 16.25 19.5C16.25 19.069 16.4212 18.6557 16.726 18.351C17.0307 18.0462 17.444 17.875 17.875 17.875H19.5V15.4375C19.5 13.9291 20.0992 12.4824 21.1658 11.4158C22.2324 10.3492 23.6791 9.75 25.1875 9.75H26.1625C26.5935 9.75 27.0068 9.92121 27.3115 10.226C27.6163 10.5307 27.7875 10.944 27.7875 11.375C27.7875 11.806 27.6163 12.2193 27.3115 12.524C27.0068 12.8288 26.5935 13 26.1625 13H25.1875C24.8674 13 24.5504 13.063 24.2547 13.1855C23.959 13.308 23.6903 13.4876 23.4639 13.7139C23.2376 13.9403 23.058 14.209 22.9355 14.5047C22.813 14.8004 22.75 15.1174 22.75 15.4375V17.875H26.1625C26.5935 17.875 27.0068 18.0462 27.3115 18.351C27.6163 18.6557 27.7875 19.069 27.7875 19.5C27.7875 19.931 27.6163 20.3443 27.3115 20.649C27.0068 20.9538 26.5935 21.125 26.1625 21.125H22.75V32.5H29.25C30.112 32.5 30.9386 32.1576 31.5481 31.5481C32.1576 30.9386 32.5 30.112 32.5 29.25V9.75C32.5 8.88805 32.1576 8.0614 31.5481 7.4519C30.9386 6.84241 30.112 6.5 29.25 6.5H9.75Z" fill="black"/>
</svg>
