<svg width="39" height="39" viewBox="0 0 39 39" fill="none" xmlns="http://www.w3.org/2000/svg">
<path fill-rule="evenodd" clip-rule="evenodd" d="M24.1292 9.1941C23.3868 9.19379 22.6536 9.35831 21.9825 9.67578C21.3115 9.99324 20.7193 10.4557 20.2487 11.0299C19.7781 11.604 19.4408 12.2755 19.2612 12.9958C19.0817 13.7162 19.0643 14.4674 19.2103 15.1952C19.2606 15.4474 19.2503 15.7079 19.1802 15.9554C19.1102 16.2028 18.9825 16.4301 18.8075 16.6186C18.6325 16.807 18.4153 16.9513 18.1738 17.0394C17.9322 17.1276 17.6731 17.1572 17.4179 17.1257C13.9237 16.6965 10.6298 15.2601 7.93766 12.9917C7.98803 13.97 8.32766 15.01 9.06378 16.0987L10.1672 17.7302L8.35528 18.5021L8.00591 18.6516C8.26591 18.949 8.57791 19.2528 8.92728 19.5535C9.39433 19.9532 9.88842 20.3203 10.406 20.652L10.4239 20.6633H10.4255L12.941 22.1892L10.3085 23.5055C10.1785 23.5705 10.0485 23.629 9.91853 23.681C10.4846 24.1513 11.1082 24.5478 11.7743 24.8607L14.033 25.9284L12.1415 27.5598C11.1097 28.4503 10.0713 29.115 8.72416 29.466C10.7902 30.5665 13.0961 31.1398 15.437 31.1348C23.2468 31.1348 29.5355 24.903 29.5355 17.2671V16.4221L30.2262 15.9362C31.3052 15.179 32.0673 14.1552 32.6133 12.9836H29.1033L28.6613 12.0573C28.2543 11.2004 27.6126 10.4765 26.8106 9.96973C26.0087 9.46291 25.0794 9.19396 24.1308 9.1941H24.1292ZM5.79916 21.0566C5.64582 21.2322 5.53206 21.4388 5.4656 21.6622C5.39915 21.8857 5.38156 22.1209 5.41403 22.3517C5.59766 23.6534 6.37603 24.7746 7.23728 25.631C7.47128 25.8633 7.72153 26.086 7.98478 26.2989L7.86291 26.3314C7.08128 26.5264 6.02666 26.567 4.27003 26.3963C3.9383 26.3638 3.60459 26.434 3.31413 26.5976C3.02368 26.7611 2.79054 27.01 2.64631 27.3105C2.50209 27.611 2.45377 27.9486 2.5079 28.2775C2.56203 28.6064 2.71599 28.9107 2.94891 29.1491C4.57516 30.8113 6.51789 32.131 8.66244 33.0303C10.807 33.9295 13.11 34.3901 15.4354 34.3849C24.719 34.3849 32.3338 27.1764 32.7644 18.0796C34.8607 16.3197 35.9088 13.9358 36.4743 11.7697C36.5372 11.5293 36.5441 11.2777 36.4944 11.0342C36.4448 10.7907 36.34 10.5618 36.1881 10.3651C36.0362 10.1685 35.8412 10.0093 35.6181 9.89981C35.395 9.79033 35.1498 9.73347 34.9013 9.7336H31.0777C30.1424 8.28137 28.7756 7.15869 27.1694 6.5233C25.5631 5.88792 23.7982 5.77176 22.1225 6.19117C20.4469 6.61058 18.9447 7.54446 17.8272 8.86159C16.7097 10.1787 16.0329 11.8129 15.892 13.5345C12.8966 12.7547 10.2164 11.0658 8.22041 8.7001C8.04364 8.49109 7.81694 8.33013 7.56134 8.23215C7.30574 8.13417 7.02954 8.10234 6.75835 8.13962C6.48717 8.1769 6.2298 8.28208 6.01012 8.44541C5.79045 8.60873 5.61559 8.8249 5.50178 9.07385C4.51703 11.2221 4.32853 13.6986 5.42703 16.2173L5.04678 16.3798C4.6829 16.5349 4.38807 16.8173 4.21755 17.1742C4.04703 17.5311 4.01254 17.938 4.12053 18.3185C4.42278 19.378 5.10203 20.314 5.79753 21.0566H5.79916Z" fill="black"/>
</svg>
