<svg width="1920" height="5875" viewBox="0 0 1920 5875" fill="none" xmlns="http://www.w3.org/2000/svg">
<path d="M1854.73 3504.1C1993.82 3546.24 2094.65 3615.8 2157.23 3712.77C2219.8 3809.75 2230.98 3924.59 2190.77 4057.3C2155.59 4173.42 2088.84 4253.5 1990.51 4297.55C1893.46 4341.99 1781.38 4346.35 1654.28 4310.63L1602.37 4447.45L1271.24 4347.13L1375.15 3962.75L1512.96 4004.5C1599.74 4030.79 1668.99 4041.32 1720.73 4036.1C1772.85 4029.6 1806.65 4000.83 1822.11 3949.79C1832.55 3915.33 1831.09 3885.64 1817.75 3860.7C1806.07 3834.87 1784.28 3817.12 1752.38 3807.46C1716.65 3796.63 1685.93 3799.17 1660.22 3815.06C1636.17 3830.07 1618.73 3855.43 1607.91 3891.16L1253.8 3783.88C1274.83 3705.27 1312.24 3639.28 1366.02 3585.92C1421.46 3531.66 1490.52 3496.86 1573.19 3481.5C1656.25 3464.87 1750.1 3472.4 1854.73 3504.1ZM1279.05 4928.37C1212.69 4908.26 1164.51 4874.16 1134.5 4826.06C1106.15 4777.07 1100.49 4724.5 1117.5 4668.36C1134.51 4612.21 1168.4 4571.63 1219.16 4546.6C1271.21 4521.97 1330.41 4519.7 1396.77 4539.81C1461.84 4559.52 1508.56 4593.88 1536.9 4642.87C1566.53 4692.24 1572.83 4745 1555.82 4801.15C1539.2 4856.02 1504.86 4895.77 1452.82 4920.41C1402.05 4945.43 1344.13 4948.08 1279.05 4928.37Z" fill="#72FFEE" fill-opacity="0.29"/>
<path d="M232.663 3973.02L178.574 3955.9L234.666 3888.47L270.36 3899.77L232.663 3973.02ZM301.029 3994.67L246.94 3977.54L303.033 3910.12L338.726 3921.42L301.029 3994.67Z" fill="#59FFB9" fill-opacity="0.38"/>
<path d="M1789.57 5391.69L1843.93 5408.9L1787.84 5476.33L1751.87 5464.94L1789.57 5391.69ZM1857.93 5413.33L1912.3 5430.55L1856.2 5497.98L1820.23 5486.59L1857.93 5413.33Z" fill="#59FFB9" fill-opacity="0.38"/>
<path d="M1086.5 2835.5C1086.5 3348.51 616.157 3765.5 34.5 3765.5C-547.157 3765.5 -1017.5 3348.51 -1017.5 2835.5C-1017.5 2322.49 -547.157 1905.5 34.5 1905.5C616.157 1905.5 1086.5 2322.49 1086.5 2835.5Z" stroke="#59FFB9" stroke-opacity="0.45" stroke-width="11"/>
<ellipse cx="2001.5" cy="935.5" rx="1057.5" ry="935.5" fill="#72FFEE" fill-opacity="0.24"/>
</svg>
