<svg width="55" height="49" viewBox="0 0 55 49" fill="none" xmlns="http://www.w3.org/2000/svg">
<g id="call_24px">
<path id="icon/communication/call_24px" fill-rule="evenodd" clip-rule="evenodd" d="M9.16667 0.875H17.1875C18.4479 0.875 19.4792 1.79375 19.4792 2.91667C19.4792 5.46875 19.9375 7.91875 20.7854 10.2054C21.0375 10.92 20.8542 11.7163 20.2125 12.2879L15.1708 16.7796C18.4708 22.5575 23.7875 27.2738 30.2729 30.2342L35.3146 25.7425C35.7729 25.3546 36.3458 25.1504 36.9417 25.1504C37.1708 25.1504 37.4229 25.1708 37.6521 25.2525C40.2188 26.0079 42.9917 26.4163 45.8333 26.4163C47.0938 26.4163 48.125 27.335 48.125 28.4579V35.5833C48.125 36.7063 47.0938 37.625 45.8333 37.625C24.3146 37.625 6.875 22.0879 6.875 2.91667C6.875 1.79375 7.90625 0.875 9.16667 0.875ZM14.9875 4.95835C15.125 6.77544 15.4688 8.55169 16.0188 10.2463L13.2688 12.6963C12.3292 10.2463 11.7333 7.65335 11.5271 4.95835H14.9875ZM37.5833 29.4986C39.5313 29.9886 41.525 30.2948 43.5417 30.4174V33.4594C40.5167 33.2757 37.6063 32.7449 34.8333 31.9282L37.5833 29.4986Z" fill="black" fill-opacity="0.54"/>
</g>
</svg>
