<svg width="55" height="53" viewBox="0 0 55 53" fill="none" xmlns="http://www.w3.org/2000/svg">
<g id="language_24px">
<path id="icon/action/language_24px" fill-rule="evenodd" clip-rule="evenodd" d="M4.58398 26.4998C4.58398 14.3098 14.8277 4.4165 27.4777 4.4165C40.1507 4.4165 50.4173 14.3098 50.4173 26.4998C50.4173 38.6898 40.1507 48.5832 27.4777 48.5832C14.8277 48.5832 4.58398 38.6898 4.58398 26.4998ZM36.5987 17.6673H43.3591C41.1591 14.0236 37.6528 11.1969 33.4362 9.80566C34.8112 12.2569 35.8653 14.9069 36.5987 17.6673ZM27.5008 8.92145C29.4028 11.5715 30.8924 14.5085 31.8778 17.6664H23.1237C24.1091 14.5085 25.5987 11.5715 27.5008 8.92145ZM9.16728 26.4998C9.16728 28.0235 9.39644 29.5031 9.76311 30.9164H17.5089C17.3256 29.4589 17.1881 28.0014 17.1881 26.4998C17.1881 24.9981 17.3256 23.5406 17.5089 22.0831H9.76311C9.39644 23.4964 9.16728 24.976 9.16728 26.4998ZM11.6424 35.3331H18.4028C19.1362 38.0935 20.1903 40.7435 21.5653 43.1948C17.3487 41.8035 13.8424 38.9989 11.6424 35.3331ZM11.6424 17.6673H18.4028C19.1362 14.9069 20.1903 12.2569 21.5653 9.80566C17.3487 11.1969 13.8424 14.0015 11.6424 17.6673ZM27.5008 44.0781C25.5987 41.4281 24.1091 38.491 23.1237 35.3331H31.8778C30.8924 38.491 29.4028 41.4281 27.5008 44.0781ZM22.1381 30.9164H32.8632C33.0694 29.4589 33.2298 28.0014 33.2298 26.4998C33.2298 24.9981 33.0694 23.5185 32.8632 22.0831H22.1381C21.9319 23.5185 21.7715 24.9981 21.7715 26.4998C21.7715 28.0014 21.9319 29.4589 22.1381 30.9164ZM33.4362 43.1948C34.8112 40.7435 35.8653 38.0935 36.5987 35.3331H43.3591C41.1591 38.9768 37.6528 41.8035 33.4362 43.1948ZM37.8131 26.4998C37.8131 28.0014 37.6756 29.4589 37.4923 30.9164H45.2381C45.6048 29.5031 45.834 28.0235 45.834 26.4998C45.834 24.976 45.6048 23.4964 45.2381 22.0831H37.4923C37.6756 23.5406 37.8131 24.9981 37.8131 26.4998Z" fill="black" fill-opacity="0.54"/>
</g>
</svg>
