<svg width="39" height="39" viewBox="0 0 39 39" fill="none" xmlns="http://www.w3.org/2000/svg">
<path fill-rule="evenodd" clip-rule="evenodd" d="M3.25 9.75C3.25 8.02609 3.93482 6.37279 5.15381 5.15381C6.37279 3.93482 8.02609 3.25 9.75 3.25H29.25C30.9739 3.25 32.6272 3.93482 33.8462 5.15381C35.0652 6.37279 35.75 8.02609 35.75 9.75V29.25C35.75 30.9739 35.0652 32.6272 33.8462 33.8462C32.6272 35.0652 30.9739 35.75 29.25 35.75H9.75C8.02609 35.75 6.37279 35.0652 5.15381 33.8462C3.93482 32.6272 3.25 30.9739 3.25 29.25V9.75ZM9.75 6.5C8.88805 6.5 8.0614 6.84241 7.4519 7.4519C6.84241 8.0614 6.5 8.88805 6.5 9.75V29.25C6.5 30.112 6.84241 30.9386 7.4519 31.5481C8.0614 32.1576 8.88805 32.5 9.75 32.5H29.25C30.112 32.5 30.9386 32.1576 31.5481 31.5481C32.1576 30.9386 32.5 30.112 32.5 29.25V9.75C32.5 8.88805 32.1576 8.0614 31.5481 7.4519C30.9386 6.84241 30.112 6.5 29.25 6.5H9.75ZM19.5 14.625C18.2071 14.625 16.9671 15.1386 16.0529 16.0529C15.1386 16.9671 14.625 18.2071 14.625 19.5C14.625 20.7929 15.1386 22.0329 16.0529 22.9471C16.9671 23.8614 18.2071 24.375 19.5 24.375C20.7929 24.375 22.0329 23.8614 22.9471 22.9471C23.8614 22.0329 24.375 20.7929 24.375 19.5C24.375 18.2071 23.8614 16.9671 22.9471 16.0529C22.0329 15.1386 20.7929 14.625 19.5 14.625ZM11.375 19.5C11.375 17.3451 12.231 15.2785 13.7548 13.7548C15.2785 12.231 17.3451 11.375 19.5 11.375C21.6549 11.375 23.7215 12.231 25.2452 13.7548C26.769 15.2785 27.625 17.3451 27.625 19.5C27.625 21.6549 26.769 23.7215 25.2452 25.2452C23.7215 26.769 21.6549 27.625 19.5 27.625C17.3451 27.625 15.2785 26.769 13.7548 25.2452C12.231 23.7215 11.375 21.6549 11.375 19.5ZM28.4375 13C29.084 13 29.704 12.7432 30.1611 12.2861C30.6182 11.829 30.875 11.209 30.875 10.5625C30.875 9.91603 30.6182 9.29605 30.1611 8.83893C29.704 8.38181 29.084 8.125 28.4375 8.125C27.791 8.125 27.171 8.38181 26.7139 8.83893C26.2568 9.29605 26 9.91603 26 10.5625C26 11.209 26.2568 11.829 26.7139 12.2861C27.171 12.7432 27.791 13 28.4375 13Z" fill="black"/>
</svg>
