<svg width="39" height="39" viewBox="0 0 39 39" fill="none" xmlns="http://www.w3.org/2000/svg">
<path fill-rule="evenodd" clip-rule="evenodd" d="M9.75 3.25C8.02609 3.25 6.37279 3.93482 5.15381 5.15381C3.93482 6.37279 3.25 8.02609 3.25 9.75V29.25C3.25 30.9739 3.93482 32.6272 5.15381 33.8462C6.37279 35.0652 8.02609 35.75 9.75 35.75H29.25C30.9739 35.75 32.6272 35.0652 33.8462 33.8462C35.0652 32.6272 35.75 30.9739 35.75 29.25V9.75C35.75 8.02609 35.0652 6.37279 33.8462 5.15381C32.6272 3.93482 30.9739 3.25 29.25 3.25H9.75ZM6.5 9.75C6.5 8.88805 6.84241 8.0614 7.4519 7.4519C8.0614 6.84241 8.88805 6.5 9.75 6.5H29.25C30.112 6.5 30.9386 6.84241 31.5481 7.4519C32.1576 8.0614 32.5 8.88805 32.5 9.75V29.25C32.5 30.112 32.1576 30.9386 31.5481 31.5481C30.9386 32.1576 30.112 32.5 29.25 32.5H9.75C8.88805 32.5 8.0614 32.1576 7.4519 31.5481C6.84241 30.9386 6.5 30.112 6.5 29.25V9.75ZM14.625 17.875C14.625 17.444 14.4538 17.0307 14.149 16.726C13.8443 16.4212 13.431 16.25 13 16.25C12.569 16.25 12.1557 16.4212 11.851 16.726C11.5462 17.0307 11.375 17.444 11.375 17.875V27.625C11.375 28.056 11.5462 28.4693 11.851 28.774C12.1557 29.0788 12.569 29.25 13 29.25C13.431 29.25 13.8443 29.0788 14.149 28.774C14.4538 28.4693 14.625 28.056 14.625 27.625V17.875ZM15.4375 12.1875C15.4375 12.834 15.1807 13.454 14.7236 13.9111C14.2665 14.3682 13.6465 14.625 13 14.625C12.3535 14.625 11.7335 14.3682 11.2764 13.9111C10.8193 13.454 10.5625 12.834 10.5625 12.1875C10.5625 11.541 10.8193 10.921 11.2764 10.4639C11.7335 10.0068 12.3535 9.75 13 9.75C13.6465 9.75 14.2665 10.0068 14.7236 10.4639C15.1807 10.921 15.4375 11.541 15.4375 12.1875ZM19.5 16.25C20.0525 16.25 20.54 16.5263 20.8325 16.9455C21.67 16.489 22.6087 16.2499 23.5625 16.25C27.0725 16.25 29.25 19.3797 29.25 22.0529V27.625C29.25 28.056 29.0788 28.4693 28.774 28.774C28.4693 29.0788 28.056 29.25 27.625 29.25C27.194 29.25 26.7807 29.0788 26.476 28.774C26.1712 28.4693 26 28.056 26 27.625V22.0513C26 20.8032 24.9275 19.4984 23.5625 19.4984C22.711 19.4984 21.7701 19.9615 21.125 21.0632V27.625C21.125 28.056 20.9538 28.4693 20.649 28.774C20.3443 29.0788 19.931 29.25 19.5 29.25C19.069 29.25 18.6557 29.0788 18.351 28.774C18.0462 28.4693 17.875 28.056 17.875 27.625V17.875C17.875 17.444 18.0462 17.0307 18.351 16.726C18.6557 16.4212 19.069 16.25 19.5 16.25Z" fill="black"/>
</svg>
