<svg width="39" height="39" viewBox="0 0 39 39" fill="none" xmlns="http://www.w3.org/2000/svg">
<path fill-rule="evenodd" clip-rule="evenodd" d="M5.68818 19.5C5.68818 16.7681 6.49827 14.0976 8.016 11.8262C9.53374 9.55473 11.691 7.78435 14.2149 6.73891C16.7388 5.69348 19.516 5.41994 22.1954 5.9529C24.8747 6.48586 27.3359 7.80137 29.2676 9.73309C31.1993 11.6648 32.5148 14.126 33.0478 16.8053C33.5807 19.4847 33.3072 22.2619 32.2618 24.7858C31.2163 27.3097 29.4459 29.4669 27.1745 30.9847C24.903 32.5024 22.2325 33.3125 19.5007 33.3125C16.8874 33.3172 14.327 32.5764 12.1199 31.1773C11.9236 31.0531 11.7029 30.9724 11.4728 30.9407C11.2426 30.909 11.0084 30.9271 10.7858 30.9936L6.1058 32.3895L7.86893 28.2669C7.97141 28.0269 8.01458 27.7657 7.99478 27.5055C7.97498 27.2452 7.89279 26.9936 7.75518 26.7719C6.39982 24.5889 5.68371 22.0695 5.68818 19.5ZM19.5007 2.4375C10.0773 2.4375 2.43818 10.0766 2.43818 19.5C2.43818 22.4867 3.2068 25.298 4.5588 27.7436L1.75568 34.2989C1.63435 34.5828 1.59645 34.8955 1.64641 35.2002C1.69636 35.5049 1.8321 35.7891 2.03774 36.0195C2.24338 36.2498 2.51039 36.4168 2.80752 36.5009C3.10464 36.585 3.41957 36.5827 3.71543 36.4943L11.0279 34.3135C13.6068 35.7914 16.5283 36.5668 19.5007 36.5625C28.9241 36.5625 36.5632 28.9234 36.5632 19.5C36.5632 10.0766 28.9241 2.4375 19.5007 2.4375ZM23.2268 23.0457L21.0899 24.5505C19.9126 23.8731 18.8315 23.0407 17.8757 22.0756C16.8495 21.0509 15.9623 19.896 15.2367 18.6404L16.5936 17.4882C16.8763 17.2484 17.0685 16.919 17.1382 16.5549C17.208 16.1907 17.1511 15.8136 16.9771 15.4862L15.2481 12.2362C15.133 12.0204 14.9707 11.8333 14.7733 11.689C14.5758 11.5446 14.3483 11.4466 14.1078 11.4024C13.8672 11.3582 13.6198 11.3689 13.3839 11.4336C13.148 11.4984 12.9298 11.6155 12.7456 11.7764L12.2321 12.2232C10.9987 13.299 10.2691 15.067 10.8736 16.8577C11.8461 19.6903 13.4555 22.262 15.5779 24.375C18.5241 27.3211 21.5173 28.4814 23.2691 28.9331C24.6796 29.2955 26.0137 28.8096 26.9546 28.0426L27.9149 27.2594C28.1174 27.0943 28.2771 26.8828 28.3804 26.6428C28.4838 26.4029 28.5278 26.1415 28.5086 25.881C28.4895 25.6204 28.4078 25.3683 28.2705 25.1461C28.1332 24.9238 27.9444 24.7379 27.7199 24.6041L24.9932 22.9791C24.7235 22.8182 24.4131 22.7389 24.0993 22.7507C23.7856 22.7626 23.4819 22.865 23.2252 23.0457H23.2268Z" fill="black"/>
</svg>
